<?xml version="1.0" encoding="UTF-8" standalone="no"?>
<!-- Created with Inkscape (http://www.inkscape.org/) -->

<svg
   xmlns:dc="http://purl.org/dc/elements/1.1/"
   xmlns:cc="http://creativecommons.org/ns#"
   xmlns:rdf="http://www.w3.org/1999/02/22-rdf-syntax-ns#"
   xmlns:svg="http://www.w3.org/2000/svg"
   xmlns="http://www.w3.org/2000/svg"
   xmlns:sodipodi="http://sodipodi.sourceforge.net/DTD/sodipodi-0.dtd"
   xmlns:inkscape="http://www.inkscape.org/namespaces/inkscape"
   width="128"
   height="128"
   viewBox="0 0 33.866666 33.866668"
   version="1.1"
   id="svg8"
   sodipodi:docname="game_default_hover.svg"
   inkscape:version="0.92.2 5c3e80d, 2017-08-06"
   inkscape:export-filename="/home/ruman/Projects/OpenInftyLoop/gfx/tiles/end.png"
   inkscape:export-xdpi="150"
   inkscape:export-ydpi="150">
  <defs
     id="defs2" />
  <sodipodi:namedview
     id="base"
     pagecolor="#ffffff"
     bordercolor="#666666"
     borderopacity="1.0"
     inkscape:pageopacity="0.0"
     inkscape:pageshadow="2"
     inkscape:zoom="2.8"
     inkscape:cx="-41.21021"
     inkscape:cy="45.840137"
     inkscape:document-units="px"
     inkscape:current-layer="layer1"
     showgrid="true"
     units="px"
     showguides="true"
     inkscape:guide-bbox="true"
     inkscape:window-width="1920"
     inkscape:window-height="1026"
     inkscape:window-x="0"
     inkscape:window-y="0"
     inkscape:window-maximized="1"
     inkscape:snap-bbox="false"
     inkscape:snap-bbox-midpoints="true"
     inkscape:bbox-nodes="true">
    <sodipodi:guide
       position="33.866666,16.933333"
       orientation="1,0"
       id="guide10"
       inkscape:locked="false" />
    <inkscape:grid
       type="xygrid"
       id="grid12"
       spacingx="4.2333334"
       spacingy="4.2333334" />
  </sodipodi:namedview>
  <metadata
     id="metadata5">
    <rdf:RDF>
      <cc:Work
         rdf:about="">
        <dc:format>image/svg+xml</dc:format>
        <dc:type
           rdf:resource="http://purl.org/dc/dcmitype/StillImage" />
        <dc:title />
      </cc:Work>
    </rdf:RDF>
  </metadata>
  <g
     inkscape:label="Ebene 1"
     inkscape:groupmode="layer"
     id="layer1"
     transform="translate(0,-263.13332)">
    <circle
       style="fill:none;stroke:#005a80;stroke-width:4.83809519;stroke-miterlimit:4;stroke-dasharray:none;stroke-opacity:1"
       id="path16"
       cx="16.933334"
       cy="280.06665"
       r="14.514285" />
    <path
       inkscape:connector-curvature="0"
       style="fill:#00618a;fill-opacity:1;stroke:none;stroke-width:0.26458338"
       d="m 22.202316,271.60007 c -1.601793,0.46324 -3.418524,0.70844 -5.268972,0.71108 -1.850403,-10e-4 -3.667842,-0.2448 -5.27104,-0.70696 0.0232,0.72968 0.0816,1.42397 0.144682,2.11258 h -0.165362 c 0,-1.05837 -1.058341,-1.05837 -1.058341,-1.05837 H 9.5249388 8.466598 v 2.11669 h 0.0084 c -5.84e-4,0.036 -0.0084,0.0696 -0.0084,0.10521 0,3.92903 2.652318,7.20725 6.269436,8.17114 0.360843,0.42837 0.741038,0.76021 1.138957,0.96949 v 2.39574 h -1.05834 V 287.475 H 13.75831 v 1.05833 h 6.350053 V 287.475 h -1.058345 v -1.05833 h -1.058341 v -2.39574 c 0.397363,-0.2096 0.77651,-0.54156 1.136889,-0.96949 3.61811,-0.96325 6.271504,-4.24139 6.271504,-8.17114 0,-0.036 -0.0076,-0.0696 -0.0084,-0.10521 h 0.0084 v -2.11689 h -1.05834 -1.058341 -0.0164 c 0,0 -0.74743,0.004 -1.041805,1.01289 v 0.0456 h -0.0164 -0.150881 c 0.0632,-0.68985 0.121361,-1.38566 0.144681,-2.1167 z m -12.5781484,2.1167 h 0.9591234 c 0.283603,1.05832 1.058341,1.05832 1.058341,1.05832 h 0.279043 c 0.344122,2.76867 0.99218,5.13257 1.852099,6.80274 -2.512629,-1.18277 -4.2478392,-3.72655 -4.2478392,-6.69733 0,-0.39721 0.0396,-0.78369 0.099241,-1.16373 z m 13.6592294,0 h 0.95912 c 0.05964,0.38 0.09924,0.7664 0.09924,1.16373 0,2.9731 -1.738227,5.51784 -4.25404,6.69941 0.860932,-1.67049 1.511829,-4.03407 1.856236,-6.80482 h 0.281122 c 0,0 1.058341,0 1.058341,-1.05832 z"
       class="ColorScheme-Text"
       id="path4"
       sodipodi:nodetypes="ccccccccccsccccccccccccccscccccccccccccccccsccccsccccc" />
  </g>
</svg>
