<?xml version="1.0" encoding="UTF-8" standalone="no"?>
<!-- Created with Inkscape (http://www.inkscape.org/) -->

<svg
   xmlns:dc="http://purl.org/dc/elements/1.1/"
   xmlns:cc="http://creativecommons.org/ns#"
   xmlns:rdf="http://www.w3.org/1999/02/22-rdf-syntax-ns#"
   xmlns:svg="http://www.w3.org/2000/svg"
   xmlns="http://www.w3.org/2000/svg"
   xmlns:sodipodi="http://sodipodi.sourceforge.net/DTD/sodipodi-0.dtd"
   xmlns:inkscape="http://www.inkscape.org/namespaces/inkscape"
   width="512"
   height="512"
   viewBox="0 0 135.46666 135.46667"
   version="1.1"
   id="svg8"
   inkscape:version="0.92.2 5c3e80d, 2017-08-06"
   sodipodi:docname="icon.svg"
   inkscape:export-filename="/home/ruman/Projects/OpenInftyLoop/icon.png"
   inkscape:export-xdpi="48"
   inkscape:export-ydpi="48">
  <defs
     id="defs2" />
  <sodipodi:namedview
     id="base"
     pagecolor="#ffffff"
     bordercolor="#666666"
     borderopacity="1.0"
     inkscape:pageopacity="0.0"
     inkscape:pageshadow="2"
     inkscape:zoom="0.5"
     inkscape:cx="-213.46549"
     inkscape:cy="241.73266"
     inkscape:document-units="px"
     inkscape:current-layer="layer1"
     showgrid="true"
     units="px"
     inkscape:snap-nodes="true"
     inkscape:snap-bbox="false"
     inkscape:window-width="1366"
     inkscape:window-height="720"
     inkscape:window-x="0"
     inkscape:window-y="0"
     inkscape:window-maximized="1">
    <inkscape:grid
       type="xygrid"
       id="grid815"
       spacingx="16.933333"
       spacingy="16.933333"
       enabled="false" />
  </sodipodi:namedview>
  <metadata
     id="metadata5">
    <rdf:RDF>
      <cc:Work
         rdf:about="">
        <dc:format>image/svg+xml</dc:format>
        <dc:type
           rdf:resource="http://purl.org/dc/dcmitype/StillImage" />
        <dc:title />
      </cc:Work>
    </rdf:RDF>
  </metadata>
  <g
     inkscape:label="Ebene 1"
     inkscape:groupmode="layer"
     id="layer1"
     transform="translate(0,-161.53331)">
    <path
       style="color:#000000;font-style:normal;font-variant:normal;font-weight:normal;font-stretch:normal;font-size:medium;line-height:normal;font-family:sans-serif;font-variant-ligatures:normal;font-variant-position:normal;font-variant-caps:normal;font-variant-numeric:normal;font-variant-alternates:normal;font-feature-settings:normal;text-indent:0;text-align:start;text-decoration:none;text-decoration-line:none;text-decoration-style:solid;text-decoration-color:#000000;letter-spacing:normal;word-spacing:normal;text-transform:none;writing-mode:lr-tb;direction:ltr;text-orientation:mixed;dominant-baseline:auto;baseline-shift:baseline;text-anchor:start;white-space:normal;shape-padding:0;clip-rule:nonzero;display:inline;overflow:visible;visibility:visible;opacity:1;isolation:auto;mix-blend-mode:normal;color-interpolation:sRGB;color-interpolation-filters:linearRGB;solid-color:#000000;solid-opacity:1;vector-effect:none;fill:#1c1c1c;fill-opacity:1;fill-rule:evenodd;stroke:#b3dfee;stroke-width:5;stroke-linecap:butt;stroke-linejoin:miter;stroke-miterlimit:4;stroke-dasharray:none;stroke-dashoffset:0;stroke-opacity:1;color-rendering:auto;image-rendering:auto;shape-rendering:auto;text-rendering:auto;enable-background:accumulate"
       d="M 146.08789 117.66016 L 146.08789 167.66406 C 192.45315 167.66406 208.88105 187.78952 219.76562 210.23633 C 230.65022 232.68317 231.00195 256.00391 231.00195 256.00391 C 231.00195 304.59087 211.03519 321.89669 189.58984 332.95312 C 168.1445 344.00957 146.08789 344.33594 146.08789 344.33594 C 99.722639 344.33594 83.28693 324.21048 72.402344 301.76367 C 61.517758 279.31687 61.166016 256.00391 61.166016 256.00391 L 11.167969 256.00391 C 11.167969 256.00391 10.813798 289.35621 27.408203 323.57812 C 44.002612 357.80008 82.537165 394.33984 146.08789 394.33984 C 146.08789 394.33984 178.98149 394.66862 212.49414 377.39062 C 227.95609 369.419 243.72472 356.73442 256.23438 339.03711 C 275.99623 367.95971 311.91613 394.33984 365.91211 394.33984 C 365.91211 394.33984 398.81549 394.66862 432.32812 377.39062 C 465.84078 360.11272 500.83203 320.7544 500.83203 256.00391 C 500.83203 256.00391 501.17849 222.64378 484.58398 188.42188 C 467.98959 154.19995 429.46285 117.66016 365.91211 117.66016 C 365.91211 117.66016 333.01851 117.32939 299.50586 134.60742 C 284.04456 142.57871 268.27698 155.2645 255.76758 172.96289 C 236.0053 144.04029 200.08387 117.66016 146.08789 117.66016 z M 365.91211 167.66406 C 412.27738 167.66406 428.71502 187.78952 439.59961 210.23633 C 450.4842 232.68317 450.83398 256.00391 450.83398 256.00391 C 450.83398 304.59087 430.8594 321.8967 409.41406 332.95312 C 387.96872 344.0096 365.91211 344.33594 365.91211 344.33594 C 319.54685 344.33594 303.11895 324.21051 292.23438 301.76367 C 281.34979 279.31683 280.99805 256.00391 280.99805 256.00391 C 280.99805 207.41695 300.96676 190.1033 322.41211 179.04688 C 343.85746 167.99043 365.91211 167.66406 365.91211 167.66406 z "
       transform="matrix(0.26458333,0,0,0.26458333,0,161.53331)"
       id="path19" />
  </g>
</svg>
