<?xml version="1.0" encoding="UTF-8" standalone="no"?>
<!-- Created with Inkscape (http://www.inkscape.org/) -->

<svg
   xmlns:dc="http://purl.org/dc/elements/1.1/"
   xmlns:cc="http://creativecommons.org/ns#"
   xmlns:rdf="http://www.w3.org/1999/02/22-rdf-syntax-ns#"
   xmlns:svg="http://www.w3.org/2000/svg"
   xmlns="http://www.w3.org/2000/svg"
   xmlns:sodipodi="http://sodipodi.sourceforge.net/DTD/sodipodi-0.dtd"
   xmlns:inkscape="http://www.inkscape.org/namespaces/inkscape"
   width="512"
   height="512"
   viewBox="0 0 135.46666 135.46667"
   version="1.1"
   id="svg8"
   inkscape:version="0.92.2 5c3e80d, 2017-08-06"
   sodipodi:docname="icon.svg"
   inkscape:export-filename="/home/ruman/Projects/OpenInftyLoop/icon.png"
   inkscape:export-xdpi="48"
   inkscape:export-ydpi="48">
  <defs
     id="defs2" />
  <sodipodi:namedview
     id="base"
     pagecolor="#ffffff"
     bordercolor="#666666"
     borderopacity="1.0"
     inkscape:pageopacity="0.0"
     inkscape:pageshadow="2"
     inkscape:zoom="0.5"
     inkscape:cx="-108.43514"
     inkscape:cy="170.75562"
     inkscape:document-units="px"
     inkscape:current-layer="layer1"
     showgrid="true"
     units="px"
     inkscape:snap-nodes="true"
     inkscape:snap-bbox="false"
     inkscape:window-width="1366"
     inkscape:window-height="720"
     inkscape:window-x="0"
     inkscape:window-y="0"
     inkscape:window-maximized="1">
    <inkscape:grid
       type="xygrid"
       id="grid815"
       spacingx="2.1166666"
       spacingy="2.1166666"
       enabled="true"
       snapvisiblegridlinesonly="true"
       originy="0" />
  </sodipodi:namedview>
  <metadata
     id="metadata5">
    <rdf:RDF>
      <cc:Work
         rdf:about="">
        <dc:format>image/svg+xml</dc:format>
        <dc:type
           rdf:resource="http://purl.org/dc/dcmitype/StillImage" />
        <dc:title></dc:title>
      </cc:Work>
    </rdf:RDF>
  </metadata>
  <g
     inkscape:label="Ebene 1"
     inkscape:groupmode="layer"
     id="layer1"
     transform="translate(0,-161.53331)">
    <rect
       style="fill:#a162d0;fill-opacity:1;stroke:none;stroke-width:1.32291663;stroke-miterlimit:4;stroke-dasharray:none;stroke-opacity:1"
       id="rect9"
       width="131.23332"
       height="131.23332"
       x="2.1166666"
       y="163.64998"
       ry="10.583334" />
    <path
       style="color:#000000;font-style:normal;font-variant:normal;font-weight:normal;font-stretch:normal;font-size:medium;line-height:normal;font-family:sans-serif;font-variant-ligatures:normal;font-variant-position:normal;font-variant-caps:normal;font-variant-numeric:normal;font-variant-alternates:normal;font-feature-settings:normal;text-indent:0;text-align:start;text-decoration:none;text-decoration-line:none;text-decoration-style:solid;text-decoration-color:#000000;letter-spacing:normal;word-spacing:normal;text-transform:none;writing-mode:lr-tb;direction:ltr;text-orientation:mixed;dominant-baseline:auto;baseline-shift:baseline;text-anchor:start;white-space:normal;shape-padding:0;clip-rule:nonzero;display:inline;overflow:visible;visibility:visible;opacity:1;isolation:auto;mix-blend-mode:normal;color-interpolation:sRGB;color-interpolation-filters:linearRGB;solid-color:#000000;solid-opacity:1;vector-effect:none;fill:#1c1c1c;fill-opacity:1;fill-rule:evenodd;stroke:#b3dfee;stroke-width:1.32291663;stroke-linecap:butt;stroke-linejoin:miter;stroke-miterlimit:4;stroke-dasharray:none;stroke-dashoffset:0;stroke-opacity:1;color-rendering:auto;image-rendering:auto;shape-rendering:auto;text-rendering:auto;enable-background:accumulate"
       d="m 41.396682,196.11826 v 11.98172 c 11.109837,0 15.046218,4.82237 17.65433,10.20097 2.608119,5.37862 2.692399,10.96663 2.692399,10.96663 0,11.64219 -4.784346,15.78893 -9.922985,18.43822 -5.138637,2.6493 -10.423744,2.72751 -10.423744,2.72751 -11.109835,0 -15.048086,-4.82238 -17.656203,-10.20098 -2.608116,-5.3786 -2.692398,-10.96475 -2.692398,-10.96475 H 9.067771 c 0,0 -0.084865,7.99173 3.891413,16.19183 3.976278,8.20011 13.209756,16.95561 28.437498,16.95561 0,0 7.881818,0.0788 15.91197,-4.0613 3.704924,-1.91012 7.483333,-4.94955 10.480842,-9.1901 4.735246,6.93031 13.342213,13.2514 26.280489,13.2514 0,0 7.884157,0.0788 15.914307,-4.0613 8.03016,-4.14005 16.4146,-13.57092 16.4146,-29.08614 0,0 0.083,-7.99361 -3.89328,-16.19371 -3.97627,-8.2001 -13.20788,-16.95561 -28.435627,-16.95561 0,0 -7.881818,-0.0793 -15.91197,4.06083 -3.704768,1.91005 -7.482925,4.94976 -10.480372,9.19057 -4.735349,-6.93031 -13.342682,-13.2514 -26.280959,-13.2514 z m 52.673301,11.98172 c 11.109837,0 15.048557,4.82237 17.656667,10.20097 2.60812,5.37862 2.69193,10.96663 2.69193,10.96663 0,11.64219 -4.78622,15.78893 -9.92485,18.43822 -5.13864,2.64931 -10.423747,2.72751 -10.423747,2.72751 -11.109837,0 -15.046217,-4.82237 -17.654329,-10.20098 -2.608117,-5.37861 -2.6924,-10.96475 -2.6924,-10.96475 0,-11.64219 4.784814,-15.79081 9.923453,-18.4401 5.138639,-2.6493 10.423276,-2.7275 10.423276,-2.7275 z"
       id="path19"
       inkscape:connector-curvature="0" />
  </g>
</svg>
